<?xml version="1.0" encoding="UTF-8"?>
<svg width="128px" height="128px" viewBox="0 0 128 128" version="1.1" xmlns="http://www.w3.org/2000/svg" xmlns:xlink="http://www.w3.org/1999/xlink">
    <!-- Generator: Sketch 47.1 (45422) - http://www.bohemiancoding.com/sketch -->
    <title>icon</title>
    <desc>Created with Sketch.</desc>
    <defs></defs>
    <g id="Page-1" stroke="none" stroke-width="1" fill="none" fill-rule="evenodd">
        <g id="icon">
            <rect id="Rectangle-2" fill="#DF003B" x="0" y="0" width="128" height="128"></rect>
            <g id="Group-2" transform="translate(16.000000, 89.000000)" fill-rule="nonzero" fill="#FFFFFF">
                <polygon id="Shape" points="8.04188482 16.4280628 8.04188482 10.1553927 3.65403141 10.1553927 3.65403141 16.4280628 0.193507853 16.4280628 0.193507853 1.79434555 3.65403141 1.79434555 3.65403141 7.45633508 8.04188482 7.45633508 8.04188482 1.79434555 11.5099476 1.79434555 11.5099476 16.4280628"></polygon>
                <path d="M23.7763351,11.8064921 L16.8326702,11.8064921 C16.8547492,12.5414473 17.1380939,13.2444627 17.6318325,13.7893194 C18.1261733,14.19065 18.7528522,14.3923706 19.3884817,14.3547644 C19.8345722,14.3573416 20.2771217,14.2754828 20.6927749,14.1135079 C21.1791872,13.9190878 21.6399913,13.6658988 22.0649215,13.3595812 L23.4370681,15.2142408 C22.207773,16.2262963 20.66413,16.7781686 19.0718325,16.7748691 C17.5106474,16.8782846 15.9822031,16.2944464 14.8875393,15.1765445 C13.8710963,13.9767735 13.3506829,12.4344083 13.4324607,10.8640838 C13.4259169,9.80980194 13.6443929,8.76625769 14.0732984,7.80314136 C14.4556268,6.93129195 15.07793,6.1860969 15.867644,5.65445026 C17.9964434,4.38228909 20.7131195,4.69100228 22.502199,6.40837696 C23.4684384,7.58448739 23.9581057,9.0803941 23.8743455,10.6002094 C23.868063,11.004013 23.8353227,11.4069708 23.7763351,11.8064921 L23.7763351,11.8064921 Z M20.5721466,9.65026178 C20.5721466,7.9313089 19.9313089,7.07183246 18.7551832,7.07183246 C18.2310287,7.0499008 17.7294827,7.28658544 17.4131937,7.70513089 C17.033208,8.3382018 16.8325398,9.06269228 16.8326702,9.80104712 L20.6023037,9.80104712 L20.5721466,9.65026178 Z" id="Shape"></path>
                <path d="M26.3623037,15.953089 C25.7832553,15.2997707 25.4900056,14.4417439 25.5480628,13.5706806 L25.5480628,0.753926702 L28.8804188,0.399581152 L28.8804188,13.4425131 C28.8804188,13.9099476 29.0764398,14.1361257 29.4534031,14.1361257 C29.6422232,14.1398398 29.8297205,14.1038814 30.0037696,14.0305759 L30.6596859,16.405445 C30.0158357,16.666006 29.3260982,16.79421 28.631623,16.7824084 C27.7926624,16.8343116 26.970109,16.5337107 26.3623037,15.953089 Z" id="Shape"></path>
                <path d="M41.3503665,6.4234555 C42.1099661,7.74786973 42.4687775,9.26430632 42.3832461,10.7886911 C42.3989863,11.8458652 42.2174543,12.8967051 41.8479581,13.8873298 C41.5345836,14.7247969 40.9973768,15.4601965 40.2948691,16.0134031 C39.6122618,16.5223532 38.7787524,16.787802 37.9275393,16.7673298 C36.8869072,16.8179296 35.8788608,16.3969871 35.1832461,15.6213613 L35.1832461,20.7556021 L31.8735079,21.1099476 L31.8735079,5.21717277 L34.8062827,5.21717277 L34.9721466,6.46115183 C35.7385776,5.45303288 36.9325727,4.86161475 38.1989529,4.86282723 C39.4526081,4.7836127 40.6535082,5.37831683 41.3503665,6.4234555 Z M38.9528796,10.8339267 C39.0227108,9.89199505 38.8703479,8.94682852 38.5080628,8.07455497 C38.2462451,7.59025713 37.7312097,7.29762339 37.1811518,7.32062827 C36.7978831,7.32085226 36.4240184,7.43933051 36.1105759,7.65989529 C35.7351987,7.90744273 35.4186578,8.2342776 35.1832461,8.6173822 L35.1832461,13.3445026 C35.5466926,13.9554476 36.2064095,14.3283311 36.9172775,14.3246073 C38.2743455,14.3246073 38.9528796,13.1610471 38.9528796,10.8339267 Z" id="Shape"></path>
                <path d="M53.6393717,3.01570681 C54.7335706,3.86402117 55.3352685,5.20018591 55.2452356,6.5817801 C55.3393328,8.00329131 54.7582842,9.3860751 53.6770681,10.3137173 C52.4574961,11.202164 50.9694291,11.6440586 49.4626178,11.5652356 L47.8793717,11.5652356 L47.8793717,16.4431414 L44.4188482,16.4431414 L44.4188482,1.79434555 L49.1459686,1.79434555 C50.7363763,1.70541862 52.3128173,2.13391433 53.6393717,3.01570681 L53.6393717,3.01570681 Z M51.0157068,8.48167539 C51.4920897,7.96362579 51.7251673,7.26713499 51.6565445,6.56670157 C51.6565445,5.05884817 50.7970681,4.29235602 49.0781152,4.26722513 L47.8567539,4.26722513 L47.8567539,9.04712042 L49.1459686,9.04712042 C49.8177111,9.09649142 50.4838994,8.89502318 51.0157068,8.48167539 L51.0157068,8.48167539 Z" id="Shape"></path>
                <path d="M63.9078534,5.0513089 L63.3725654,8.29319372 C63.0421919,8.20799645 62.7033392,8.15995016 62.3623037,8.14994764 C61.7768882,8.1137649 61.2117697,8.3708938 60.8544503,8.83602094 C60.4499102,9.45110244 60.1801249,10.1448362 60.0628272,10.871623 L60.0628272,16.4280628 L56.7304712,16.4280628 L56.7304712,5.21717277 L59.6406283,5.21717277 L59.9120419,7.38848168 C60.124345,6.68713066 60.5230183,6.05654931 61.0655497,5.56397906 C61.5430506,5.13342594 62.1641824,4.89680429 62.8071204,4.90052356 C63.1792172,4.89996347 63.549615,4.95070289 63.9078534,5.0513089 Z" id="Shape"></path>
                <path d="M74.7342408,11.8064921 L67.7830366,11.8064921 C67.8071919,12.54242 68.0932579,13.2455542 68.5897382,13.7893194 C69.0810508,14.1908167 69.7054837,14.3926808 70.3388482,14.3547644 C70.7874392,14.3579303 71.2325679,14.2760676 71.6506806,14.1135079 C72.1363378,13.9174928 72.5969557,13.664406 73.0228272,13.3595812 L74.3874346,15.2217801 C73.1555106,16.234373 71.6093278,16.7862003 70.0146597,16.7824084 C68.4557307,16.8856285 66.9296745,16.3016503 65.8379058,15.1840838 C64.8214628,13.9843127 64.3010494,12.4419476 64.3828272,10.871623 C64.3657105,9.81699288 64.5739094,8.77085769 64.9935079,7.80314136 C65.3733125,6.92973163 65.9961541,6.18389187 66.7878534,5.65445026 C68.9137422,4.38082144 71.629394,4.68976931 73.4148691,6.40837696 C74.3883507,7.59228937 74.8784704,9.1003498 74.7870157,10.6303665 C74.7904753,11.0230702 74.7728583,11.4156765 74.7342408,11.8064921 L74.7342408,11.8064921 Z M71.5225131,9.65026178 C71.5225131,7.9313089 70.8892147,7.07183246 69.7055497,7.07183246 C69.1816592,7.05120221 68.6806859,7.28761659 68.3635602,7.70513089 C67.987023,8.33967664 67.7866222,9.06320181 67.7830366,9.80104712 L71.5526702,9.80104712 L71.5225131,9.65026178 Z" id="Shape"></path>
                <path d="M82.9143455,5.21717277 C83.586485,5.4437991 84.2140649,5.78565158 84.7690052,6.22743455 L83.5401047,8.11225131 C82.7235321,7.56244219 81.7650215,7.26127082 80.780733,7.2452356 C80.4328553,7.22590781 80.0862646,7.30148024 79.7780105,7.46387435 C79.5549797,7.59259236 79.4193204,7.83216082 79.4236649,8.08963351 C79.4192906,8.27552791 79.4747963,8.45790386 79.5819895,8.60984293 C79.7685079,8.78780972 79.9890401,8.92628345 80.2303665,9.01696335 C80.7221111,9.21620774 81.2256866,9.38490554 81.7382199,9.52209424 C82.6975947,9.75555229 83.5902367,10.2070331 84.3468063,10.841466 C84.9336919,11.4436492 85.242509,12.2635175 85.1987435,13.1032461 C85.2138873,13.8152246 84.9821294,14.5104982 84.5428272,15.0709948 C84.0731947,15.6542936 83.4525641,16.0976012 82.7484817,16.3526702 C81.93843,16.6539739 81.0794734,16.8022462 80.215288,16.7899476 C79.3218393,16.7994016 78.433711,16.6513802 77.591623,16.3526702 C76.8291745,16.0871458 76.1288469,15.6690014 75.5334031,15.1237696 L77.1543455,13.3143455 C78.0039605,14.0146914 79.0690146,14.4007736 80.1700524,14.4075393 C80.5845,14.4280524 80.9966035,14.3341554 81.3612565,14.1361257 C81.6278778,13.9786224 81.7913286,13.6918666 81.7909948,13.382199 C81.8031903,13.1589591 81.7451897,12.9375024 81.6251309,12.7489005 C81.4482176,12.550315 81.2219265,12.4020554 80.9692147,12.3191623 C80.4761257,12.1257071 79.9727437,11.959591 79.4613613,11.8215707 C78.527937,11.5979747 77.6698483,11.1325266 76.9734031,10.4720419 C76.4217077,9.89187483 76.1233496,9.11614379 76.1440838,8.31581152 C76.138081,7.69042016 76.3337124,7.07973299 76.7019895,6.57424084 C77.1184974,6.03091308 77.6730267,5.60915844 78.3078534,5.35287958 C79.075238,5.03854007 79.8988412,4.88459555 80.7279581,4.90052356 C81.4689574,4.88910522 82.2070321,4.9959988 82.9143455,5.21717277 L82.9143455,5.21717277 Z" id="Shape"></path>
                <path d="M93.2356021,5.21717277 C93.9077416,5.4437991 94.5353215,5.78565158 95.0902618,6.22743455 L93.8689005,8.11225131 C93.0490569,7.5634032 92.0884394,7.26239227 91.1019895,7.2452356 C90.7541119,7.22590781 90.4075211,7.30148024 90.099267,7.46387435 C89.8779379,7.59335268 89.7449419,7.83332378 89.7524607,8.08963351 C89.7446742,8.27597886 89.8005072,8.45943031 89.9107853,8.60984293 C90.0929139,8.78970547 90.3114169,8.92851916 90.551623,9.01696335 C91.0433677,9.21620774 91.5469432,9.38490554 92.0594764,9.52209424 C93.0188512,9.75555229 93.9114932,10.2070331 94.6680628,10.841466 C95.2549485,11.4436492 95.5637655,12.2635175 95.52,13.1032461 C95.5351438,13.8152246 95.303386,14.5104982 94.8640838,15.0709948 C94.3944513,15.6542936 93.7738206,16.0976012 93.0697382,16.3526702 C92.2600562,16.6553421 91.4008403,16.8036591 90.5365445,16.7899476 C89.6430959,16.7994016 88.7549675,16.6513802 87.9128796,16.3526702 C87.1504311,16.0871458 86.4501034,15.6690014 85.8546597,15.1237696 L87.4756021,13.3143455 C88.3151843,14.0066004 89.3655505,14.3921779 90.4536126,14.4075393 C90.8680602,14.4280524 91.2801637,14.3341554 91.6448168,14.1361257 C91.9154758,13.9816647 92.0824195,13.6938308 92.0820942,13.382199 C92.0920542,13.1581476 92.0313995,12.936626 91.9086911,12.7489005 C91.7338693,12.5514136 91.5103045,12.403237 91.2603141,12.3191623 C90.7551176,12.1237454 90.2390788,11.9576061 89.7147644,11.8215707 C88.7827308,11.5943579 87.9255248,11.1293886 87.2268063,10.4720419 C86.6584513,9.8912245 86.3485558,9.10561218 86.3673298,8.29319372 C86.3574906,7.66722772 86.5535022,7.05535366 86.9252356,6.55162304 C87.3396093,6.00615765 87.8947827,5.58391311 88.5310995,5.33026178 C89.2957795,5.01570004 90.116971,4.86172662 90.9436649,4.87790576 C91.721262,4.86169444 92.4960479,4.97638314 93.2356021,5.21717277 Z" id="Shape"></path>
            </g>
            <path d="M94,48 C94,31.4314575 80.5685425,18 64,18 C47.4314575,18 34,31.4314575 34,48 C34,64.5685425 47.4314575,78 64,78 C80.5685425,78 94,64.5685425 94,48 Z M53.62,23.88 L59.2,37.875 C56.8601858,38.9773457 54.9773457,40.8601858 53.875,43.2 L39.895,37.605 C42.5598862,31.4522656 47.4672656,26.5448862 53.62,23.88 L53.62,23.88 Z M88.12,37.605 L74.125,43.2 C73.0226543,40.8601858 71.1398142,38.9773457 68.8,37.875 L74.395,23.88 C80.5442903,26.5499498 85.4500502,31.4557097 88.12,37.605 Z M64,55.5 C59.8578644,55.5 56.5,52.1421356 56.5,48 C56.5,43.8578644 59.8578644,40.5 64,40.5 C68.1421356,40.5 71.5,43.8578644 71.5,48 C71.5,49.9891237 70.7098237,51.896778 69.3033009,53.3033009 C67.896778,54.7098237 65.9891237,55.5 64,55.5 Z M39.88,58.38 L53.875,52.8 C54.9773457,55.1398142 56.8601858,57.0226543 59.2,58.125 L53.605,72.105 C47.4522656,69.4401138 42.5448862,64.5327344 39.88,58.38 Z M74.38,72.105 L68.8,58.125 C71.136903,57.0185182 73.0185182,55.136903 74.125,52.8 L88.105,58.38 C85.4439298,64.5353277 80.5353277,69.4439298 74.38,72.105 L74.38,72.105 Z" id="Shape" fill="#FFFFFF" fill-rule="nonzero"></path>
        </g>
    </g>
</svg>