<svg width="128" height="128" viewBox="0 0 128 128" xmlns="http://www.w3.org/2000/svg"><title>icon</title><desc>Created with Sketch.</desc><defs><linearGradient x1="100%" y1="0%" x2="0%" y2="100%" id="a"><stop stop-color="#fff" offset="0%"/><stop stop-color="#37FCFC" offset="100%"/></linearGradient></defs><g fill="none"><path fill="url(#a)" d="M0 0h128v128h-128z"/><path d="M23.693 95.68h-4v-6.227h-3.693v16h3.693v-6.88h4v6.88h3.693v-16h-3.693v6.227zm10.893-2.88c-1.536-.068-3.004.632-3.92 1.867-.962 1.399-1.431 3.078-1.333 4.773-.101 1.703.41 3.386 1.44 4.747 1.064 1.192 2.619 1.826 4.213 1.72 1.631.02 3.209-.58 4.413-1.68l-1.453-1.96c-.413.313-.86.577-1.333.787-.423.172-.876.258-1.333.253-.627.046-1.243-.188-1.68-.64-.471-.652-.723-1.436-.72-2.24h6.827c.05-.443.073-.888.067-1.333.125-1.661-.348-3.311-1.333-4.653-.96-1.116-2.384-1.722-3.853-1.64zm1.707 5.427h-3.44c-.032-.827.132-1.649.48-2.4.263-.478.792-.748 1.333-.68.554-.058 1.086.234 1.333.733.296.689.428 1.438.387 2.187l-.093.16zm9.253 4.8c-.373 0-.56-.222-.56-.667v-14.36l-3.56.373v14.146c-.056.899.252 1.783.853 2.453.635.61 1.494.929 2.373.88.696-.001 1.384-.156 2.013-.453l-.667-2.467c-.146.053-.299.084-.453.093zm8.906-10.226c-1.297-.008-2.508.645-3.213 1.733l-.16-1.333h-3.16v17.333l3.56-.373v-5.587c.628.841 1.617 1.335 2.667 1.333.852.014 1.68-.28 2.333-.827.721-.648 1.247-1.483 1.52-2.413.38-1.102.565-2.261.547-3.427.092-1.663-.262-3.32-1.027-4.8-.638-1.074-1.819-1.706-3.067-1.64zm-1.333 10.413c-.675-.03-1.284-.416-1.6-1.013v-5.427c.507-.889 1.107-1.333 1.8-1.333.527.021.992.35 1.187.84.333.991.469 2.037.4 3.08-.018 2.569-.631 3.853-1.84 3.853h.053zm12-13.76h-4.6v16h3.693v-5.333h1.227c1.588.105 3.161-.369 4.427-1.333 1.136-1.056 1.725-2.574 1.6-4.12.098-1.483-.516-2.924-1.653-3.88-1.376-.967-3.041-1.437-4.72-1.333h.027zm1.96 7.333c-.526.467-1.219.698-1.92.64h-.92v-5.333h.92c.705-.062 1.404.17 1.933.64.442.543.652 1.237.587 1.933.071.757-.154 1.512-.627 2.107l.027.013zm10.386-3.293c-.543.505-.943 1.144-1.16 1.853l-.307-2.16h-3.107v12.253h3.56v-6.253c.114-.766.381-1.5.787-2.16.322-.467.86-.738 1.427-.72.329-.001.657.044.973.133l.573-3.413c-.34-.13-.702-.194-1.067-.187-.63-.001-1.238.232-1.707.653h.027zm8.533-.693c-1.531-.063-2.994.636-3.907 1.867-.962 1.399-1.431 3.078-1.333 4.773-.101 1.703.41 3.386 1.44 4.747 1.064 1.192 2.619 1.826 4.213 1.72 1.631.02 3.209-.58 4.413-1.68l-1.493-2.04c-.413.313-.86.577-1.333.787-.423.172-.876.258-1.333.253-.61.063-1.218-.141-1.667-.56-.471-.652-.723-1.436-.72-2.24h6.827c.05-.443.073-.888.067-1.333.125-1.661-.348-3.311-1.333-4.653-.957-1.112-2.375-1.718-3.84-1.64zm1.707 5.427h-3.44c-.013-.827.169-1.644.533-2.387.251-.45.739-.715 1.253-.68.554-.058 1.086.234 1.333.733.296.689.428 1.438.387 2.187l-.067.147zm10.56-.227c-.495-.169-.98-.364-1.453-.587-.252-.107-.476-.272-.653-.48-.117-.178-.173-.388-.16-.6-.013-.287.117-.561.347-.733.291-.193.638-.287.987-.267.959.031 1.887.347 2.667.907l1.333-1.933c-.548-.482-1.181-.857-1.867-1.107-.768-.282-1.582-.417-2.4-.4-.83-.002-1.649.18-2.4.533-.647.286-1.202.748-1.6 1.333-.373.57-.568 1.239-.56 1.92-.031.821.245 1.624.773 2.253.677.693 1.522 1.198 2.453 1.467.503.165.993.365 1.467.6.259.12.484.303.653.533.125.219.185.468.173.72.017.337-.132.661-.4.867-.329.224-.723.332-1.12.307-1.061-.041-2.075-.451-2.867-1.16l-1.72 1.827c.594.576 1.297 1.029 2.067 1.333.849.332 1.755.495 2.667.48 1.287.055 2.555-.326 3.6-1.08.924-.687 1.452-1.783 1.413-2.933.043-.868-.253-1.72-.827-2.373-.726-.685-1.61-1.179-2.573-1.44v.013zm12.866 1.453c-.713-.684-1.583-1.183-2.533-1.453-.495-.169-.98-.364-1.453-.587-.252-.107-.476-.272-.653-.48-.118-.172-.179-.378-.173-.587-.018-.291.113-.572.347-.747.295-.196.646-.29 1-.267.959.031 1.887.347 2.667.907l1.333-1.933c-.548-.482-1.181-.857-1.867-1.107-.731-.263-1.503-.394-2.28-.387-.887-.033-1.769.146-2.573.52-.647.286-1.202.748-1.6 1.333-.373.57-.568 1.239-.56 1.92-.031.821.245 1.624.773 2.253.677.693 1.522 1.198 2.453 1.467.503.165.993.365 1.467.6.259.12.484.303.653.533.125.219.185.468.173.72.017.337-.132.661-.4.867-.329.224-.723.332-1.12.307-1.037-.067-2.02-.485-2.787-1.187l-1.747 1.853c.594.577 1.296 1.03 2.067 1.333.849.332 1.755.495 2.667.48 1.287.055 2.555-.326 3.6-1.08.916-.681 1.443-1.765 1.413-2.907.032-.88-.284-1.738-.88-2.387l.013.013zM64 18c-16.569 0-30 13.431-30 30 0 16.569 13.431 30 30 30 16.569 0 30-13.431 30-30 0-7.956-3.161-15.587-8.787-21.213-5.626-5.626-13.257-8.787-21.213-8.787zm14.7 11.07l-4.29 4.26c-6.32-4.444-14.77-4.359-21 .21l-4.41-4.26c8.657-6.907 20.916-6.994 29.67-.21h.03zm-14.7 30.93c-6.627 0-12-5.373-12-12s5.373-12 12-12 12 5.373 12 12c0 3.183-1.264 6.235-3.515 8.485-2.25 2.25-5.303 3.515-8.485 3.515zm-24-12c.009-5.196 1.704-10.249 4.83-14.4l4.17 4.29c-4.232 6.221-4.148 14.417.21 20.55l-4.14 4.26c-3.275-4.202-5.058-9.373-5.07-14.7zm9.3 18.93l4.26-4.26c6.133 4.358 14.329 4.442 20.55.21l4.26 4.26c-8.62 6.552-20.575 6.466-29.1-.21h.03zm33.42-3.93l-4.26-4.26c4.569-6.23 4.654-14.68.21-21l4.26-4.44c6.8 8.76 6.713 21.037-.21 29.7z" fill="#2C398F" fill-rule="nonzero"/></g></svg>